<?xml version="1.0" encoding="UTF-8" standalone="no"?>
<!-- Created with Inkscape (http://www.inkscape.org/) -->

<svg
   xmlns:dc="http://purl.org/dc/elements/1.1/"
   xmlns:cc="http://creativecommons.org/ns#"
   xmlns:rdf="http://www.w3.org/1999/02/22-rdf-syntax-ns#"
   xmlns:svg="http://www.w3.org/2000/svg"
   xmlns="http://www.w3.org/2000/svg"
   xmlns:sodipodi="http://sodipodi.sourceforge.net/DTD/sodipodi-0.dtd"
   xmlns:inkscape="http://www.inkscape.org/namespaces/inkscape"
   width="200"
   height="200"
   viewBox="0 0 52.916665 52.916668"
   version="1.1"
   id="svg8"
   inkscape:export-filename="C:\Users\ronny\AppData\Roaming\Franz\Plugins\tawkto\icon.png"
   inkscape:export-xdpi="96"
   inkscape:export-ydpi="96"
   inkscape:version="0.92pre5 r15287"
   sodipodi:docname="icon.svg">
  <defs
     id="defs2" />
  <sodipodi:namedview
     id="base"
     pagecolor="#ffffff"
     bordercolor="#666666"
     borderopacity="1.0"
     inkscape:pageopacity="0.0"
     inkscape:pageshadow="2"
     inkscape:zoom="0.5"
     inkscape:cx="1.1408527"
     inkscape:cy="98.228632"
     inkscape:document-units="mm"
     inkscape:current-layer="layer2"
     showgrid="false"
     showguides="true"
     inkscape:guide-bbox="true"
     inkscape:lockguides="false"
     inkscape:snap-path-clip="true"
     inkscape:snap-bbox="true"
     inkscape:snap-bbox-midpoints="true"
     units="px"
     inkscape:window-width="1304"
     inkscape:window-height="745"
     inkscape:window-x="-8"
     inkscape:window-y="-8"
     inkscape:window-maximized="1">
    <sodipodi:guide
       position="175.25212,142.43098"
       orientation="0,1"
       id="guide44"
       inkscape:locked="false" />
    <sodipodi:guide
       position="177.51802,164.56351"
       orientation="0,1"
       id="guide46"
       inkscape:locked="false" />
    <sodipodi:guide
       position="176.30496,165.31881"
       orientation="1,0"
       id="guide48"
       inkscape:locked="false" />
    <sodipodi:guide
       position="180.63076,141.95034"
       orientation="1,0"
       id="guide50"
       inkscape:locked="false" />
    <sodipodi:guide
       position="176.79555,138.9894"
       orientation="1,0"
       id="guide52"
       inkscape:locked="false" />
    <sodipodi:guide
       position="180.03238,138.9894"
       orientation="1,0"
       id="guide54"
       inkscape:locked="false" />
    <sodipodi:guide
       position="178.46786,153.42566"
       orientation="0,1"
       id="guide72"
       inkscape:locked="false" />
    <sodipodi:guide
       position="178.42118,153.39871"
       orientation="1,0"
       id="guide74"
       inkscape:locked="false" />
  </sodipodi:namedview>
  <metadata
     id="metadata5">
    <rdf:RDF>
      <cc:Work
         rdf:about="">
        <dc:format>image/svg+xml</dc:format>
        <dc:type
           rdf:resource="http://purl.org/dc/dcmitype/StillImage" />
        <dc:title></dc:title>
      </cc:Work>
    </rdf:RDF>
  </metadata>
  <g
     inkscape:groupmode="layer"
     id="layer2"
     inkscape:label="Capa 2"
     transform="translate(0,-244.08332)">
    <g
       id="g3751">
      <path
         style="fill:#dd98b3;stroke-width:1.23424566"
         d="m 4.0091308,295.08769 c -2.7505731,-3.31425 -0.544973,-5.56985 5.4463941,-5.56985 5.4374841,0 5.5508451,-0.083 6.3125991,-4.62838 0.426649,-2.54567 1.545787,-7.12778 2.487027,-10.18257 0.941239,-3.05474 1.693327,-8.05342 1.671304,-11.10821 -0.140878,-19.5428 -0.06652,-19.70831 7.791796,-17.34369 2.905432,0.87429 5.976869,1.78436 6.825412,2.02241 2.508196,0.70374 1.770275,2.22341 -2.16773,4.46423 -2.060439,1.17246 -3.694933,3.1353 -3.694933,4.43712 0,3.30249 4.078389,6.67193 6.807914,5.62452 2.031344,-0.77949 1.990233,-0.94286 -0.465973,-1.85148 -5.453667,-2.01742 -4.145037,-8.21539 1.372105,-6.49858 1.424258,0.44316 2.159931,0.014 2.159931,-1.26245 0,-4.7299 10.932601,1.43076 11.06896,6.23753 0.02146,0.76107 -1.943434,2.70497 -4.366714,4.31985 -4.116189,2.74308 -4.362923,3.26909 -3.751518,7.99806 0.949296,7.34245 -1.031066,12.89868 -6.501223,18.24013 -4.223579,4.12421 -5.142763,4.5267 -7.480429,3.27563 -2.139355,-1.14495 -4.115354,-0.92449 -10.015855,1.11751 -8.7373354,3.02372 -11.4588415,3.16651 -13.4990533,0.70822 z"
         id="path3732"
         inkscape:connector-curvature="0" />
      <path
         style="fill:#9ed19e;stroke-width:1.23424566"
         d="m 4.1070043,295.20562 c -2.84318,-3.42583 -0.7161549,-5.68778 5.3485206,-5.68778 5.4388041,0 5.5505281,-0.0821 6.3051731,-4.62838 0.422543,-2.54567 1.322489,-6.29468 1.999884,-8.33118 1.407161,-4.23047 3.732293,-17.30068 3.732634,-20.98219 4.57e-4,-4.95586 1.105746,-8.02259 2.891438,-8.02259 1.00532,0 1.827853,0.52051 1.827853,1.15665 0,0.63615 1.943938,0.84117 4.319862,0.45576 5.026966,-0.81574 5.764253,1.03612 1.234244,3.10013 -2.321396,1.05771 -3.085613,2.3496 -3.085613,5.21626 0,5.81298 1.837122,8.3634 5.517491,7.65984 4.202139,-0.80328 6.363642,1.24748 7.266588,6.89421 1.599573,10.00315 -3.769417,18.71591 -11.533153,18.71591 -2.469506,0 -6.755566,1.09456 -9.524579,2.43245 -7.407583,3.57893 -14.2983409,4.4333 -16.3003427,2.02105 z M 42.2577,256.76694 c 0,-2.74658 0.301724,-2.9676 2.468493,-1.80796 1.357671,0.7266 2.468492,2.13469 2.468492,3.12905 0,0.99436 -1.110821,1.80791 -2.468492,1.80791 -1.819363,0 -2.468493,-0.82283 -2.468493,-3.129 z m -9.565405,0.35173 c 0.282831,-0.84854 1.254821,-1.54281 2.159931,-1.54281 0.905114,0 1.877081,0.69427 2.15993,1.54281 0.305922,0.91776 -0.569123,1.54281 -2.15993,1.54281 -1.590804,0 -2.465853,-0.62505 -2.159931,-1.54281 z"
         id="path3730"
         inkscape:connector-curvature="0" />
      <path
         style="fill:#e57aaa;stroke-width:1.23424566"
         d="m 5.3807646,294.57395 c -2.8556212,-1.80876 -0.2820378,-3.82183 4.8858494,-3.82183 5.363659,0 6.481785,-1.42773 7.877382,-10.05853 0.923886,-5.71362 3.301886,-7.87713 6.674229,-6.07234 3.630474,1.94296 5.097019,1.62071 5.097019,-1.12013 0,-2.82374 5.346048,-6.78043 7.858596,-5.8163 0.938534,0.36013 1.957453,2.36518 2.264261,4.4556 1.608394,10.95871 -3.473706,17.78047 -14.183921,19.03923 -3.684726,0.4329 -8.703824,1.62487 -11.153545,2.64843 -5.0819004,2.12336 -6.9136346,2.26993 -9.3198704,0.74587 z M 21.515519,260.20452 c 0.01353,-4.58215 0.279892,-9.30314 0.592396,-10.49109 0.591169,-2.24725 4.104592,-3.06603 4.104592,-0.95653 0,0.67883 1.614011,0.88058 3.702737,0.46275 2.35878,-0.47176 3.702737,-0.23651 3.702737,0.64795 0,0.76369 -0.542607,1.38855 -1.205793,1.38855 -0.663185,0 -2.055036,1.29613 -3.093002,2.88022 -1.522299,2.32334 -1.619259,3.64891 -0.501445,6.85549 1.193861,3.42471 1.066692,4.21685 -0.918293,5.7202 -5.060344,3.83251 -6.409964,2.45675 -6.383929,-6.50763 z M 42.2577,256.76694 c 0,-2.74658 0.301724,-2.9676 2.468493,-1.80796 1.357671,0.7266 2.468492,2.13469 2.468492,3.12905 0,0.99436 -1.110821,1.80791 -2.468492,1.80791 -1.819363,0 -2.468493,-0.82283 -2.468493,-3.129 z m -9.565405,0.35173 c 0.282831,-0.84854 1.254821,-1.54281 2.159931,-1.54281 0.905114,0 1.877081,0.69427 2.15993,1.54281 0.305922,0.91776 -0.569123,1.54281 -2.15993,1.54281 -1.590804,0 -2.465853,-0.62505 -2.159931,-1.54281 z"
         id="path3728"
         inkscape:connector-curvature="0" />
      <path
         style="fill:#a5a59f;stroke-width:1.23424566"
         d="m 5.3807646,294.57395 c -2.8556212,-1.80876 -0.2820378,-3.82183 4.8858494,-3.82183 5.363659,0 6.481785,-1.42773 7.877382,-10.05853 0.923886,-5.71362 3.301886,-7.87713 6.674229,-6.07234 3.630474,1.94296 5.097019,1.62071 5.097019,-1.12013 0,-2.82374 5.346048,-6.78043 7.858596,-5.8163 0.938534,0.36013 1.957453,2.36518 2.264261,4.4556 1.608394,10.95871 -3.473706,17.78047 -14.183921,19.03923 -3.684726,0.4329 -8.703824,1.62487 -11.153545,2.64843 -5.0819004,2.12336 -6.9136346,2.26993 -9.3198704,0.74587 z M 21.482006,263.22596 c -0.130523,-6.50213 3.427081,-12.82978 7.83531,-13.9362 3.859892,-0.96875 5.722848,0.4553 2.76271,2.11193 -3.610512,2.02054 -4.731676,5.37514 -3.233143,9.67381 1.160371,3.32866 1.023308,4.14408 -0.947435,5.63665 -4.395619,3.32908 -6.301422,2.29376 -6.417442,-3.48619 z m 11.210289,-6.10706 c 0.282831,-0.84854 1.254821,-1.54281 2.159931,-1.54281 0.905114,0 1.877081,0.69427 2.15993,1.54281 0.305922,0.91777 -0.569123,1.54281 -2.15993,1.54281 -1.590804,0 -2.465853,-0.62504 -2.159931,-1.54281 z"
         id="path3726"
         inkscape:connector-curvature="0" />
      <path
         style="fill:#79c685;stroke-width:1.23424566"
         d="m 5.3807646,294.57395 c -2.8556212,-1.80876 -0.2820378,-3.82183 4.8858494,-3.82183 5.363659,0 6.481785,-1.42773 7.877382,-10.05853 0.923886,-5.71362 3.301886,-7.87713 6.674229,-6.07234 3.630474,1.94296 5.097019,1.62071 5.097019,-1.12013 0,-2.82374 5.346048,-6.78043 7.858596,-5.8163 0.938534,0.36013 1.957453,2.36518 2.264261,4.4556 1.445217,9.84688 -3.091211,17.37742 -10.468253,17.37742 -2.291298,0 -7.583183,1.38855 -11.75974,3.08562 -8.2471792,3.35115 -9.8486883,3.60501 -12.4293434,1.97049 z M 21.275525,266.83544 c 0,-0.93511 0.856656,-2.41122 1.903676,-3.28014 2.34612,-1.94712 4.972388,0.12921 3.853053,3.04606 -0.914481,2.38309 -5.756729,2.58 -5.756729,0.23418 z"
         id="path3724"
         inkscape:connector-curvature="0" />
      <path
         style="fill:#52b45b;stroke-width:1.23424566"
         d="m 5.230332,293.22058 c 0,-0.67883 2.3604921,-1.22574 5.245544,-1.21534 3.841531,0.014 4.750009,0.33914 3.394175,1.21534 -2.437006,1.57495 -8.639719,1.57495 -8.639719,0 z m 12.910772,-7.87331 c 1.773713,-8.67428 2.504002,-9.58472 6.476574,-8.07433 4.378186,1.66457 6.041094,0.81323 6.911409,-3.53835 1.385349,-6.92671 8.260125,-5.95871 8.260125,1.1631 0,4.95935 -3.005746,11.69178 -5.915008,13.24877 -1.331684,0.7127 -4.016902,1.23862 -5.967157,1.16874 -1.950249,-0.07 -5.236209,0.43103 -7.302133,1.11271 l -3.75623,1.23983 z"
         id="path3722"
         inkscape:connector-curvature="0" />
      <path
         style="fill:#2cae4b;stroke-width:1.23424566"
         d="m 26.212507,287.13825 -3.085613,-0.8993 4.628419,-4.31085 c 2.545632,-2.37096 4.628424,-5.45308 4.628424,-6.84914 0,-2.96083 3.015789,-5.87927 4.882916,-4.72532 3.420863,2.11421 0.05481,15.48409 -4.321093,17.1633 -2.265381,0.8693 -2.495461,0.85633 -6.733053,-0.37879 z"
         id="path3720"
         inkscape:connector-curvature="0" />
    </g>
  </g>
</svg>
