<?xml version="1.0" encoding="UTF-8" standalone="no"?>
<!-- Created with Inkscape (http://www.inkscape.org/) -->

<svg
   xmlns:dc="http://purl.org/dc/elements/1.1/"
   xmlns:cc="http://creativecommons.org/ns#"
   xmlns:rdf="http://www.w3.org/1999/02/22-rdf-syntax-ns#"
   xmlns:svg="http://www.w3.org/2000/svg"
   xmlns="http://www.w3.org/2000/svg"
   xmlns:sodipodi="http://sodipodi.sourceforge.net/DTD/sodipodi-0.dtd"
   xmlns:inkscape="http://www.inkscape.org/namespaces/inkscape"
   width="200"
   height="200"
   viewBox="0 0 52.916665 52.916668"
   version="1.1"
   id="svg8"
   inkscape:export-filename="C:\Users\ronny\AppData\Roaming\Franz\Plugins\whmcs\icon.png"
   inkscape:export-xdpi="96"
   inkscape:export-ydpi="96"
   inkscape:version="0.92pre5 r15287"
   sodipodi:docname="icon.svg">
  <defs
     id="defs2" />
  <sodipodi:namedview
     id="base"
     pagecolor="#ffffff"
     bordercolor="#666666"
     borderopacity="1.0"
     inkscape:pageopacity="0.0"
     inkscape:pageshadow="2"
     inkscape:zoom="2.020051"
     inkscape:cx="66.334958"
     inkscape:cy="96.037178"
     inkscape:document-units="mm"
     inkscape:current-layer="layer2"
     showgrid="false"
     showguides="true"
     inkscape:guide-bbox="true"
     inkscape:lockguides="false"
     inkscape:snap-path-clip="true"
     inkscape:snap-bbox="true"
     inkscape:snap-bbox-midpoints="true"
     units="px"
     inkscape:window-width="1304"
     inkscape:window-height="745"
     inkscape:window-x="-8"
     inkscape:window-y="-8"
     inkscape:window-maximized="1">
    <sodipodi:guide
       position="175.25212,142.43098"
       orientation="0,1"
       id="guide44"
       inkscape:locked="false" />
    <sodipodi:guide
       position="177.51802,164.56351"
       orientation="0,1"
       id="guide46"
       inkscape:locked="false" />
    <sodipodi:guide
       position="176.30496,165.31881"
       orientation="1,0"
       id="guide48"
       inkscape:locked="false" />
    <sodipodi:guide
       position="180.63076,141.95034"
       orientation="1,0"
       id="guide50"
       inkscape:locked="false" />
    <sodipodi:guide
       position="176.79555,138.9894"
       orientation="1,0"
       id="guide52"
       inkscape:locked="false" />
    <sodipodi:guide
       position="180.03238,138.9894"
       orientation="1,0"
       id="guide54"
       inkscape:locked="false" />
    <sodipodi:guide
       position="178.46786,153.42566"
       orientation="0,1"
       id="guide72"
       inkscape:locked="false" />
    <sodipodi:guide
       position="178.42118,153.39871"
       orientation="1,0"
       id="guide74"
       inkscape:locked="false" />
  </sodipodi:namedview>
  <metadata
     id="metadata5">
    <rdf:RDF>
      <cc:Work
         rdf:about="">
        <dc:format>image/svg+xml</dc:format>
        <dc:type
           rdf:resource="http://purl.org/dc/dcmitype/StillImage" />
        <dc:title></dc:title>
      </cc:Work>
    </rdf:RDF>
  </metadata>
  <g
     inkscape:groupmode="layer"
     id="layer2"
     inkscape:label="Capa 2"
     transform="translate(0,-244.08332)">
    <g
       id="g3781"
       transform="matrix(1.676641,0,0,1.7119867,-274.94367,26.488098)"
       style="stroke:none">
      <path
         transform="scale(0.26458333)"
         id="rect41"
         d="m 668.20312,488.08008 -1.85351,12.4668 v 0.80273 a 42.095808,42.095808 0 0 0 -5.61914,1.51562 l -0.1543,-0.26953 -8.10937,-10.33789 -10.59571,6.11719 4.54493,12.39453 0.17187,0.29688 A 42.095808,42.095808 0 0 0 642.63867,515 l -0.1914,-0.11133 -12.19141,-4.89844 -6.11719,10.59375 10.13477,8.4629 0.23242,0.13476 a 42.095808,42.095808 0 0 0 -1.45898,5.38867 h -0.25391 l -13.00781,1.85352 v 12.23437 l 13.00781,2.26172 h 0.32422 a 42.095808,42.095808 0 0 0 1.46484,5.37696 l -0.20703,0.11914 -10.33789,8.10937 6.11719,10.59375 12.39453,-4.54492 0.24805,-0.14258 a 42.095808,42.095808 0 0 0 3.95507,3.96484 l -0.084,0.14649 -4.89844,12.19141 10.59375,6.11718 8.46289,-10.13281 0.1211,-0.21094 a 42.095808,42.095808 0 0 0 5.40234,1.44727 v 0.24219 l 1.85351,13.00781 h 12.23438 l 2.26172,-13.00781 v -0.33985 a 42.095808,42.095808 0 0 0 5.11523,-1.38476 l 0.42774,0.74218 8.1914,9.66407 10.59375,-6.11719 -4.62695,-11.72266 -0.41211,-0.71484 a 42.095808,42.095808 0 0 0 3.94336,-3.9043 l 0.78516,0.45313 11.92578,4.27343 6.11719,-10.59375 -7.44922,-5.91796 H 693.7324 a 25.139518,25.139518 0 0 1 -19.38476,9.14843 25.139518,25.139518 0 0 1 -25.13868,-25.14062 25.139518,25.139518 0 0 1 25.13868,-25.13867 25.139518,25.139518 0 0 1 22.81836,14.66015 h 17.85546 a 42.095808,42.095808 0 0 0 -0.83203,-2.95117 l 0.80274,-0.46289 9.66601,-8.19336 -6.11718,-10.59375 -11.72266,4.62695 -0.76563,0.44141 a 42.095808,42.095808 0 0 0 -3.8789,-3.92578 l 0.47851,-0.83008 4.27344,-11.92773 -10.59375,-6.11719 -7.83984,9.86914 -0.45313,0.78516 a 42.095808,42.095808 0 0 0 -5.33984,-1.5 v -0.83789 l -2.26172,-12.4668 z"
         style="fill:#73cb0b;fill-opacity:1;stroke:none;stroke-width:0.99999994"
         inkscape:connector-curvature="0" />
      <path
         inkscape:connector-curvature="0"
         style="fill:#d9d9d9;fill-opacity:1;stroke:none;stroke-width:0.16830739"
         d="m 185.32848,127.10101 -0.31196,2.09825 v 0.13511 a 7.085036,7.085036 0 0 0 -0.94574,0.25509 l -0.026,-0.0454 -1.36487,-1.73995 -1.78333,1.02957 0.76494,2.0861 0.029,0.05 a 7.085036,7.085036 0 0 0 -0.66469,0.66205 l -0.0322,-0.0188 -2.05191,-0.82444 -1.02957,1.78301 1.70576,1.42437 0.0391,0.0227 a 7.085036,7.085036 0 0 0 -0.24555,0.90695 h -0.0427 l -2.18931,0.31197 v 2.05913 l 2.18931,0.38066 h 0.0546 a 7.085036,7.085036 0 0 0 0.24654,0.90498 l -0.0349,0.02 -1.73995,1.36486 1.02957,1.78301 2.08609,-0.76494 0.0417,-0.024 a 7.085036,7.085036 0 0 0 0.66567,0.66731 l -0.0141,0.0247 -0.82445,2.0519 1.78301,1.02956 1.42437,-1.70542 0.0204,-0.0355 a 7.085036,7.085036 0 0 0 0.90926,0.24359 v 0.0408 l 0.31196,2.18931 h 2.05913 l 0.38067,-2.18931 v -0.0572 a 7.085036,7.085036 0 0 0 0.86093,-0.23307 l 0.072,0.12492 1.37867,1.62653 1.78301,-1.02957 -0.77875,-1.97301 -0.0694,-0.12031 a 7.085036,7.085036 0 0 0 0.6637,-0.65712 l 0.13215,0.0763 2.00719,0.71924 1.02957,-1.78301 -1.66105,-1.3195 -0.1282,-0.074 a 7.085036,7.085036 0 0 0 0.25081,-0.90104 h 0.13873 l 2.09825,-0.38066 v -2.05913 l -2.09825,-0.31196 h -0.13774 a 7.085036,7.085036 0 0 0 -0.24161,-0.9017 l 0.1351,-0.0779 1.62686,-1.379 -1.02956,-1.78301 -1.97301,0.77875 -0.12886,0.0743 a 7.085036,7.085036 0 0 0 -0.65285,-0.66074 l 0.0805,-0.13971 0.71925,-2.00753 -1.78301,-1.02957 -1.3195,1.66105 -0.0763,0.13215 a 7.085036,7.085036 0 0 0 -0.89873,-0.25246 v -0.14102 l -0.38067,-2.09825 z m 1.03417,4.95225 a 4.2311669,4.2311669 0 0 1 4.23135,4.23102 4.2311669,4.2311669 0 0 1 -4.23135,4.23135 4.2311669,4.2311669 0 0 1 -4.23102,-4.23135 4.2311669,4.2311669 0 0 1 4.23102,-4.23102 z"
         id="path3767" />
    </g>
  </g>
</svg>
